<?xml version="1.0" standalone="no"?>
<!DOCTYPE svg PUBLIC "-//W3C//DTD SVG 20010904//EN"
 "http://www.w3.org/TR/2001/REC-SVG-20010904/DTD/svg10.dtd">
<svg version="1.0" xmlns="http://www.w3.org/2000/svg"
 width="500.000000pt" height="500.000000pt" viewBox="0 0 500.000000 500.000000"
 preserveAspectRatio="xMidYMid meet">
<metadata>
Created by potrace 1.14, written by Peter Selinger 2001-2017
</metadata>
<g transform="translate(0.000000,500.000000) scale(0.100000,-0.100000)"
fill="#000000" stroke="none">
<path d="M3340 4130 l0 -387 -37 -59 c-21 -33 -47 -77 -58 -99 -10 -22 -27
-51 -36 -65 -9 -14 -33 -56 -54 -95 -21 -38 -41 -72 -45 -75 -4 -3 -9 -12 -13
-20 -3 -8 -20 -37 -36 -65 -17 -27 -42 -72 -57 -100 -15 -27 -30 -51 -35 -53
-5 -2 -9 -8 -9 -13 0 -6 -45 -84 -100 -175 -55 -92 -100 -170 -100 -174 0 -5
-3 -10 -7 -12 -5 -1 -19 -25 -33 -53 -25 -50 -63 -117 -105 -185 -12 -19 -50
-84 -85 -145 -83 -144 -167 -287 -177 -301 -8 -10 -27 -42 -47 -79 -6 -11 -14
-22 -17 -25 -4 -3 -22 -34 -40 -70 -19 -36 -40 -71 -46 -78 -7 -7 -13 -18 -13
-23 0 -5 -27 -54 -60 -110 -33 -55 -60 -105 -60 -110 0 -5 -4 -9 -8 -9 -4 0
-21 -25 -37 -55 -17 -30 -33 -55 -38 -55 -4 0 -6 -3 -5 -7 1 -5 -3 -18 -10
-30 -7 -13 -10 -23 -6 -23 4 0 -2 -8 -12 -17 -10 -10 -20 -25 -22 -33 -2 -8
-13 -26 -25 -39 -12 -13 -15 -20 -7 -16 13 7 -6 -21 -30 -45 -3 -3 -6 -12 -8
-20 -2 -8 -8 -16 -13 -18 -5 -2 -9 -7 -9 -12 0 -9 -60 -111 -71 -120 -3 -3
-12 -19 -19 -37 -8 -17 -18 -29 -22 -27 -4 3 -5 -2 -2 -10 3 -9 2 -16 -3 -16
-6 0 -15 -11 -21 -24 -10 -23 -12 -23 -154 -22 -79 1 -162 -2 -185 -5 -24 -3
-43 -3 -43 1 0 3 -16 4 -35 2 l-35 -4 0 -82 0 -81 170 0 c94 0 170 -2 170 -5
0 -11 -25 -60 -31 -60 -3 0 -16 -23 -29 -50 -13 -28 -27 -50 -31 -50 -13 0 -3
-33 12 -39 8 -3 35 -19 61 -34 47 -28 68 -29 68 -1 0 8 7 14 15 14 8 0 12 6 9
13 -3 8 2 20 11 27 8 7 15 16 15 21 0 11 63 112 75 121 5 4 6 8 2 8 -5 0 -1 8
9 17 16 17 71 18 868 18 l851 0 1 50 c1 28 3 55 4 60 1 6 1 15 0 20 -6 25 -4
41 5 47 7 5 7 8 0 8 -7 0 -10 466 -9 1379 l0 1379 63 108 c35 60 80 138 99
174 20 36 46 82 59 103 l23 37 -37 18 c-21 9 -39 20 -41 25 -2 4 -12 7 -23 7
-10 0 -19 5 -19 10 0 6 -6 10 -12 10 -13 0 -33 -29 -73 -104 -12 -22 -25 -41
-31 -43 -7 -2 -10 77 -10 234 l1 238 -77 1 -78 0 0 -386z m-1 -1650 c-2 -794
-4 -930 -17 -935 -7 -3 -18 -3 -23 1 -5 3 -9 1 -9 -4 0 -6 -17 -13 -37 -17
-20 -4 -54 -15 -74 -25 -20 -11 -39 -16 -43 -13 -3 4 -6 1 -6 -5 0 -7 -7 -12
-15 -12 -8 0 -15 -4 -15 -10 0 -5 -6 -10 -13 -10 -13 0 -129 -90 -158 -122 -9
-10 -19 -15 -23 -11 -3 3 -6 0 -6 -9 0 -8 -9 -23 -21 -34 -52 -46 -133 -197
-165 -304 l-14 -47 -408 0 -409 1 31 62 c17 33 34 60 37 58 4 -2 10 7 13 21 4
14 11 25 16 25 6 0 10 7 10 16 0 8 4 12 10 9 5 -3 7 0 5 7 -3 8 3 23 13 33 10
11 19 23 20 28 2 9 31 64 49 92 7 11 16 28 19 38 3 9 10 17 15 17 5 0 9 7 9
15 0 8 5 15 10 15 6 0 10 9 10 19 0 11 4 23 10 26 5 3 18 26 29 51 12 25 25
43 31 39 6 -3 7 0 4 9 -4 10 -1 16 7 16 7 0 10 3 6 6 -3 4 6 25 22 48 15 22
41 66 57 96 16 30 32 59 37 65 22 30 56 85 52 85 -6 0 184 328 212 365 5 6 15
24 24 40 96 177 145 263 156 277 15 17 36 52 98 168 38 69 49 88 130 220 63
103 124 207 162 276 73 134 140 244 148 244 3 0 5 -418 4 -930z m-91 -1316
c21 -22 27 -46 23 -96 -1 -22 -58 -77 -80 -80 -58 -5 -72 -3 -87 13 -9 10 -21
16 -26 13 -4 -3 -7 0 -6 8 2 7 -1 12 -7 11 -15 -2 -18 73 -4 100 16 29 42 54
65 60 38 11 99 -3 122 -29z"/>
</g>
</svg>
